<svg width="133" height="33" viewBox="0 0 133 33" fill="none" xmlns="http://www.w3.org/2000/svg">
<path fill-rule="evenodd" clip-rule="evenodd" d="M77.3351 1.44276C77.3351 0.645947 77.981 0 78.7778 0H93.1677C93.9645 0 94.6104 0.645944 94.6104 1.44276V32.1158H77.3351V1.44276ZM0.555664 28.4493C0.555664 27.6525 1.20161 27.0066 1.99842 27.0066H16.3883C17.1851 27.0066 17.831 27.6525 17.831 28.4493V32.1159H0.555664V28.4493ZM40.3883 18.9775C39.5915 18.9775 38.9455 19.6235 38.9455 20.4203V32.1158H56.2209V20.4203C56.2209 19.6235 55.575 18.9775 54.7781 18.9775H40.3883ZM19.7506 24.7997C19.7506 24.0029 20.3965 23.3569 21.1934 23.3569H35.5832C36.38 23.3569 37.026 24.0029 37.026 24.7997V32.1158H19.7506V24.7997ZM97.9728 7.29907C97.176 7.29907 96.53 7.94502 96.53 8.74183V32.1159H113.805V8.74183C113.805 7.94502 113.159 7.29907 112.363 7.29907H97.9728ZM115.725 16.0409C115.725 15.2441 116.371 14.5981 117.168 14.5981H131.557C132.354 14.5981 133 15.2441 133 16.0409V32.1159H115.725V16.0409ZM59.5829 14.5981C58.7861 14.5981 58.1401 15.2441 58.1401 16.0409V32.1159H75.4155V16.0409C75.4155 15.2441 74.7696 14.5981 73.9727 14.5981H59.5829Z" fill="#F2B3F5"/>
</svg>
