<svg width="276" height="33" viewBox="0 0 276 33" fill="none" xmlns="http://www.w3.org/2000/svg">
    <path fill-rule="evenodd" clip-rule="evenodd" d="M159.928 1.44276C159.928 0.645947 160.574 0 161.371 0H194.455C195.252 0 195.898 0.645944 195.898 1.44276V32.1158H159.928V1.44276ZM0.0605469 28.4493C0.0605469 27.6525 0.706491 27.0066 1.5033 27.0066H34.5879C35.3847 27.0066 36.0307 27.6525 36.0307 28.4493V32.1159H0.0605469V28.4493ZM81.4374 18.9775C80.6405 18.9775 79.9946 19.6235 79.9946 20.4203V32.1158H115.965V20.4203C115.965 19.6235 115.319 18.9775 114.522 18.9775H81.4374ZM40.0276 24.7997C40.0276 24.0029 40.6735 23.3569 41.4703 23.3569H74.555C75.3518 23.3569 75.9977 24.0029 75.9977 24.7997V32.1158H40.0276V24.7997ZM201.338 7.29907C200.541 7.29907 199.895 7.94502 199.895 8.74183V32.1159H235.865V8.74183C235.865 7.94502 235.219 7.29907 234.422 7.29907H201.338ZM239.862 16.0409C239.862 15.2441 240.508 14.5981 241.304 14.5981H274.389C275.186 14.5981 275.832 15.2441 275.832 16.0409V32.1159H239.862V16.0409ZM121.404 14.5981C120.607 14.5981 119.961 15.2441 119.961 16.0409V32.1159H155.931V16.0409C155.931 15.2441 155.285 14.5981 154.488 14.5981H121.404Z" fill="#FFB7B7"/>
</svg>
